<svg width="96" height="96" xmlns="http://www.w3.org/2000/svg" xmlns:xlink="http://www.w3.org/1999/xlink" xml:space="preserve" overflow="hidden"><g transform="translate(-223 -216)"><path d="M255 278C255 282.418 251.418 286 247 286 242.582 286 239 282.418 239 278 239 273.582 242.582 270 247 270 251.418 270 255 273.582 255 278Z"/><path d="M303 278C303 282.418 299.418 286 295 286 290.582 286 287 282.418 287 278 287 273.582 290.582 270 295 270 299.418 270 303 273.582 303 278Z"/><path d="M262 258 262 246 275.7 246C276.8 246 277.8 246.4 278.5 247.2L289.3 258 262 258ZM258 258 232.7 258 243.5 247.2C244.3 246.4 245.3 246 246.3 246L258 246 258 258ZM305 258 296.7 258C295.6 258 294.6 257.6 293.9 256.8L281.3 244.3C279.8 242.8 277.8 242 275.6 242L246.3 242C244.2 242 242.1 242.8 240.6 244.3L228.2 256.8C227.4 257.6 227 258.6 227 259.7L227 270C227 274.4 230.6 278 235 278L236 278C236 271.9 240.9 267 247 267 253.1 267 258 271.9 258 278L284 278C284 271.9 288.9 267 295 267 301.1 267 306 271.9 306 278L311 278C313.2 278 315 276.2 315 274L315 268C315 262.5 310.5 258 305 258Z"/></g></svg>