<svg width="96" height="96" xmlns="http://www.w3.org/2000/svg" xmlns:xlink="http://www.w3.org/1999/xlink" xml:space="preserve" overflow="hidden"><g transform="translate(-910 -391)"><path d="M1000.6 471 961.5 403C960 400.3 956.1 400.3 954.6 403L915.4 471C913.9 473.7 915.8 477 918.9 477L958 477 997.1 477C1000.2 477 1002.1 473.7 1000.6 471ZM955 419 961 419 961 454 955 454 955 419ZM958 468C955.2 468 953 465.8 953 463 953 460.2 955.2 458 958 458 960.8 458 963 460.2 963 463 963 465.8 960.8 468 958 468Z"/></g></svg>