<svg width="96" height="96" xmlns="http://www.w3.org/2000/svg" xmlns:xlink="http://www.w3.org/1999/xlink" xml:space="preserve" overflow="hidden"><g transform="translate(-885 -152)"><path d="M968 177C968 179.761 965.761 182 963 182 960.239 182 958 179.761 958 177 958 174.239 960.239 172 963 172 965.761 172 968 174.239 968 177Z"/><path d="M908 177C908 179.761 905.761 182 903 182 900.239 182 898 179.761 898 177 898 174.239 900.239 172 903 172 905.761 172 908 174.239 908 177Z"/><path d="M948 177C948 179.761 945.761 182 943 182 940.239 182 938 179.761 938 177 938 174.239 940.239 172 943 172 945.761 172 948 174.239 948 177Z"/><path d="M928 177C928 179.761 925.761 182 923 182 920.239 182 918 179.761 918 177 918 174.239 920.239 172 923 172 925.761 172 928 174.239 928 177Z"/><path d="M974.9 201.5 971.7 186.9C971.6 186.5 971.4 186.1 971 185.8 969.8 184.9 968.5 184.1 967 183.7 965.7 183.3 964.4 183 963 183 961.6 183 960.2 183.2 959 183.7 957.5 184.2 956.2 184.9 955 185.8 954.6 186.1 954.4 186.5 954.3 186.9L953 192.8 953 192.8 951.7 186.9C951.6 186.5 951.4 186.1 951 185.8 949.8 184.9 948.5 184.1 947 183.7 945.7 183.3 944.4 183 943 183 941.6 183 940.2 183.2 939 183.7 937.5 184.2 936.2 184.9 935 185.8 934.6 186.1 934.4 186.5 934.3 186.9L933 192.7 933 192.8 931.7 186.9C931.6 186.5 931.4 186.1 931 185.8 929.8 184.9 928.5 184.1 927 183.7 925.7 183.3 924.4 183 923 183 921.6 183 920.2 183.2 919 183.7 917.5 184.2 916.2 184.9 915 185.8 914.6 186.1 914.4 186.5 914.3 186.9L913 192.7 913 192.7 911.7 186.9C911.6 186.5 911.4 186.1 911 185.8 909.8 184.9 908.5 184.1 907 183.7 905.7 183.3 904.4 183 903 183 901.6 183 900.2 183.2 899 183.7 897.5 184.2 896.2 184.9 895 185.8 894.6 186.1 894.4 186.5 894.3 186.9L891.1 201.4C890.8 202.5 891.5 203.7 892.7 203.9 892.8 203.9 892.9 203.9 893 203.9 893.9 203.9 894.7 203.3 895 202.3L898 189 898 196.1 895 211 898 211 898 228 902 228 902 211 904 211 904 228 908 228 908 211 911 211 908 196.1 908 189 911 202.4C911.2 203.3 912 204 912.9 204L912.9 204C913.8 204 914.6 203.4 914.8 202.4L918 189 918 205 918 228 922 228 922 205 924 205 924 228 928 228 928 205 928 189 931 202.4C931.2 203.3 932 204 933 204 933 204 933 204 933 204L933 204C933.9 204 934.7 203.4 934.9 202.4L938 189 938 196.2 935 211 938 211 938 228 942 228 942 211 944 211 944 228 948 228 948 211 951 211 948 196 948 189 951 202.4C951.2 203.3 952 204 953 204 953 204 953 204 953 204L953 204C953 204 953 204 953 204 953.9 204 954.7 203.4 955 202.4L958 189 958 205 958 228 962 228 962 205 964 205 964 228 968 228 968 205 968 189 971 202.4C971.2 203.3 972 204 973 204 973.2 204 973.5 204 973.7 203.9 974.6 203.5 975.1 202.5 974.9 201.5Z"/></g></svg>