<svg width="96" height="96" xmlns="http://www.w3.org/2000/svg" xmlns:xlink="http://www.w3.org/1999/xlink" xml:space="preserve" overflow="hidden"><g transform="translate(-661 -515)"><path d="M722 528C722 532.418 718.418 536 714 536 709.582 536 706 532.418 706 528 706 523.582 709.582 520 714 520 718.418 520 722 523.582 722 528Z"/><path d="M734.3 559.2 724 555.8C724 555.8 718.3 542.6 718.1 542.2 716.7 539.7 714.1 538 711.1 538 709.9 538 708.7 538.3 707.7 538.8L693.7 544.3C692.7 544.7 691.9 545.5 691.5 546.5L686.5 558.5C685.7 560.5 686.6 562.9 688.7 563.7 689.2 563.9 689.7 564 690.2 564 691.8 564 693.3 563.1 693.9 561.5L698 551.1 702.2 549.5 695.3 583.2 681.9 599.5C680.5 601.2 680.7 603.7 682.4 605.1 683.1 605.7 684 606 684.9 606 686.1 606 687.2 605.5 688 604.5L702 587.5C702.4 587 702.7 586.4 702.8 585.8L705.2 574.2 716 582 716 602C716 604.2 717.8 606 720 606 722.2 606 724 604.2 724 602L724 580C724 578.7 723.4 577.5 722.4 576.8L712.7 569.7 715.4 556.2 717.3 560.6C717.8 561.6 718.6 562.4 719.7 562.8L731.7 566.8C732.1 566.9 732.5 567 733 567 734.7 567 736.2 565.9 736.8 564.3 737.5 562.2 736.4 559.9 734.3 559.2Z"/></g></svg>