<svg width="96" height="96" xmlns="http://www.w3.org/2000/svg" xmlns:xlink="http://www.w3.org/1999/xlink" xml:space="preserve" overflow="hidden"><g transform="translate(-565 -152)"><path d="M592 218C592 221.866 588.866 225 585 225 581.134 225 578 221.866 578 218 578 214.134 581.134 211 585 211 588.866 211 592 214.134 592 218Z"/><path d="M650 218C650 221.866 646.866 225 643 225 639.134 225 636 221.866 636 218 636 214.134 639.134 211 643 211 646.866 211 650 214.134 650 218Z"/><path d="M569 176 625 176 625 200 569 200Z"/><path d="M633 186 639 186C640.8 186 642.4 187.2 642.8 188.9L644.8 195.8C644.8 195.9 644.9 195.9 644.9 196L633 196 633 186ZM639 182 629 182 629 196 629 202 629 218 633 218C633 212.5 637.5 208 643 208 648.5 208 653 212.5 653 218 655.2 218 657 216.2 657 214L657 204C657 202.7 656.4 201.6 655.4 200.8L650.1 196.8C649.4 196.3 648.9 195.5 648.7 194.7L646.7 187.8C645.7 184.4 642.5 182 639 182Z"/><path d="M625 218 595 218C595 212.5 590.5 208 585 208 579.5 208 575 212.5 575 218L569 218 569 204 625 204 625 218Z"/></g></svg>